<svg xmlns="http://www.w3.org/2000/svg" viewBox="0 0 16 16"><path d="M1 7.5h2.5V5H1v2.5zm3 0h2.5V5H4v2.5zm0-3h2.5V2H4v2.5zm3 3h2.5V5H7v2.5zm0-3h2.5V2H7v2.5zm3 3h2.5V5H10v2.5zm-3-6h2.5V0.5H7V1.5zm3 3h2.5V2H10v2.5zm3 3h1V7c0-1-1.2-2-3-2.2V5h2.5V2.5H13V5c-1 0-1.5.2-1.5.2" fill="#4DA6E8" opacity=".3"/><path d="M15 7c-.5-.5-1.5-.7-2.3-.5-.2-1.1-.9-2-1.7-2.5l-.4-.2-.2.4c-.3.5-.4 1.2-.3 1.8.1.5.3.9.6 1.3-.3.2-.6.3-1 .4-.5.1-1 .2-1.5.2H.8l-.1.5c-.1 1 .1 2 .5 2.9.5 1 1.3 1.7 2.3 2.1.9.4 2 .6 3 .6 1 0 2-.1 3-.5 1-.3 1.8-.9 2.5-1.5 1-1 1.7-2.2 2.2-3.5.6 0 1.3 0 1.8-.4.4-.3.6-.7.8-1.1l.1-.3-.3-.2c-.4-.3-.9-.4-1.6-.2zM4 8H1.5V5.5H4V8zm3 0H4.5V5.5H7V8zm3 0H7.5V5.5H10V8zm3 0h-2.5V5.5H13V8zM7 5H4.5V2.5H7V5zm3 0H7.5V2.5H10V5zm0-3H7.5V.5H10V2z" fill="#4DA6E8"/></svg>