<svg xmlns="http://www.w3.org/2000/svg" viewBox="299.79 284.49 162.08 199.87" role="img" aria-label="Queensland state silhouette">
  <path d="M 417.91 476.73 L 416.32 477.44 L 414.69 478.02 L 413.03 478.49 L 411.33 478.84 L 409.60 479.09 L 407.84 479.26 L 406.05 479.34 L 404.23 479.36 L 402.39 479.31 L 400.53 479.22 L 398.65 479.09 L 396.75 478.93 L 394.83 478.75 L 392.89 478.56 L 390.95 478.37 L 388.99 478.19 L 387.02 478.03 L 385.04 477.91 L 383.06 477.82 L 381.07 477.79 L 379.08 477.81 L 377.10 477.88 L 375.11 477.99 L 373.13 478.14 L 371.16 478.30 L 369.19 478.48 L 367.24 478.66 L 365.30 478.83 L 363.37 478.99 L 361.47 479.12 L 359.58 479.22 L 357.72 479.28 L 355.88 479.28 L 354.07 479.22 L 352.29 479.09 L 350.54 478.88 L 348.83 478.58 L 347.15 478.18 L 345.51 477.68 L 343.92 477.05 L 342.41 476.30 L 340.99 475.42 L 339.68 474.40 L 338.51 473.23 L 337.50 471.90 L 336.68 470.41 L 336.05 468.75 L 335.65 466.92 L 335.49 464.90 L 335.52 462.75 L 335.66 460.52 L 335.84 458.27 L 336.00 456.07 L 336.06 453.97 L 335.95 452.03 L 335.60 450.30 L 334.94 448.86 L 333.89 447.75 L 332.43 447.00 L 330.62 446.55 L 328.55 446.34 L 326.29 446.29 L 323.92 446.34 L 321.52 446.42 L 319.17 446.46 L 316.95 446.41 L 314.93 446.18 L 313.19 445.71 L 311.75 445.00 L 310.57 444.06 L 309.62 442.92 L 308.87 441.62 L 308.27 440.18 L 307.80 438.63 L 307.42 437.00 L 307.10 435.32 L 306.81 433.62 L 306.53 431.89 L 306.28 430.13 L 306.06 428.36 L 305.85 426.57 L 305.67 424.75 L 305.50 422.92 L 305.36 421.07 L 305.23 419.21 L 305.12 417.33 L 305.03 415.44 L 304.95 413.53 L 304.89 411.62 L 304.84 409.69 L 304.81 407.76 L 304.79 405.82 L 304.79 403.87 L 304.79 401.92 L 304.81 399.96 L 304.84 398.01 L 304.88 396.05 L 304.92 394.08 L 304.98 392.12 L 305.04 390.17 L 305.11 388.21 L 305.19 386.26 L 305.27 384.31 L 305.36 382.38 L 305.45 380.44 L 305.54 378.52 L 305.64 376.61 L 305.73 374.71 L 305.83 372.82 L 305.93 370.95 L 306.03 369.09 L 306.13 367.24 L 306.23 365.42 L 306.32 363.61 L 306.41 361.82 L 306.52 360.06 L 306.68 358.36 L 306.93 356.72 L 307.29 355.16 L 307.81 353.72 L 308.51 352.40 L 309.43 351.22 L 310.61 350.20 L 312.08 349.36 L 313.85 348.71 L 315.83 348.16 L 317.91 347.63 L 319.96 347.03 L 321.87 346.26 L 323.55 345.26 L 325.04 344.06 L 326.36 342.71 L 327.56 341.26 L 328.66 339.76 L 329.70 338.22 L 330.68 336.66 L 331.61 335.08 L 332.48 333.47 L 333.30 331.84 L 334.08 330.18 L 334.81 328.50 L 335.52 326.80 L 336.18 325.07 L 336.82 323.32 L 337.44 321.55 L 338.04 319.75 L 338.62 317.94 L 339.18 316.10 L 339.74 314.24 L 340.30 312.36 L 340.86 310.46 L 341.42 308.54 L 341.99 306.62 L 342.59 304.70 L 343.23 302.81 L 343.92 300.94 L 344.67 299.13 L 345.49 297.38 L 346.39 295.70 L 347.38 294.11 L 348.48 292.63 L 349.66 291.33 L 350.90 290.31 L 352.16 289.66 L 353.41 289.49 L 354.64 289.86 L 355.82 290.70 L 356.97 291.89 L 358.07 293.32 L 359.14 294.86 L 360.17 296.43 L 361.16 298.02 L 362.12 299.63 L 363.04 301.26 L 363.93 302.91 L 364.78 304.57 L 365.60 306.25 L 366.39 307.95 L 367.15 309.67 L 367.87 311.41 L 368.57 313.16 L 369.24 314.92 L 369.89 316.70 L 370.50 318.50 L 371.09 320.31 L 371.66 322.13 L 372.20 323.97 L 372.72 325.82 L 373.22 327.68 L 373.70 329.55 L 374.16 331.44 L 374.62 333.32 L 375.07 335.21 L 375.52 337.10 L 375.98 338.98 L 376.44 340.86 L 376.92 342.72 L 377.42 344.58 L 377.95 346.42 L 378.50 348.24 L 379.08 350.04 L 379.70 351.81 L 380.36 353.56 L 381.07 355.28 L 381.84 356.97 L 382.65 358.61 L 383.53 360.23 L 384.47 361.80 L 385.47 363.33 L 386.53 364.83 L 387.64 366.29 L 388.80 367.72 L 390.01 369.12 L 391.26 370.49 L 392.54 371.83 L 393.86 373.16 L 395.21 374.46 L 396.58 375.74 L 397.98 377.00 L 399.39 378.25 L 400.82 379.49 L 402.26 380.72 L 403.71 381.94 L 405.15 383.15 L 406.60 384.36 L 408.05 385.57 L 409.49 386.78 L 410.92 387.99 L 412.35 389.20 L 413.77 390.41 L 415.19 391.62 L 416.59 392.84 L 417.99 394.06 L 419.38 395.29 L 420.76 396.53 L 422.13 397.78 L 423.48 399.04 L 424.83 400.30 L 426.16 401.58 L 427.48 402.87 L 428.78 404.18 L 430.07 405.50 L 431.34 406.84 L 432.60 408.19 L 433.84 409.56 L 435.06 410.95 L 436.27 412.36 L 437.45 413.80 L 438.62 415.25 L 439.76 416.73 L 440.89 418.23 L 441.99 419.76 L 443.07 421.31 L 444.12 422.89 L 445.16 424.50 L 446.17 426.14 L 447.15 427.82 L 448.10 429.52 L 449.03 431.25 L 449.94 433.02 L 450.81 434.83 L 451.66 436.67 L 452.47 438.54 L 453.25 440.44 L 453.97 442.34 L 454.64 444.25 L 455.23 446.15 L 455.75 448.03 L 456.18 449.88 L 456.52 451.68 L 456.75 453.42 L 456.86 455.10 L 456.85 456.70 L 456.71 458.21 L 456.43 459.62 L 455.99 460.92 L 455.39 462.10 L 454.62 463.15 L 453.67 464.04 L 452.53 464.79 L 451.19 465.36 L 449.66 465.77 L 447.97 466.06 L 446.13 466.25 L 444.20 466.38 L 442.20 466.50 L 440.16 466.64 L 438.12 466.83 L 436.10 467.12 L 434.14 467.55 L 432.27 468.14 L 430.50 468.89 L 428.80 469.77 L 427.17 470.74 L 425.59 471.78 L 424.05 472.85 L 422.52 473.91 L 421.00 474.93 L 419.47 475.88 Z" fill="#001D74"/>
</svg>
