<svg xmlns="http://www.w3.org/2000/svg" viewBox="0 0 16 16"><path d="M2.96,9.28L2.94,9.03L3.09,9.43L3.11,9.33L3.13,9.47L3.28,9.36L2.97,8.84L3.03,8.7L3.2,8.94L3.16,9.15L3.27,8.99L3.4,9.33L3.51,9.23L3.53,8.95L3.13,8.38L2.95,7.86L3.21,7.37L3.13,6.78L3.37,6.3L3.48,6.28L3.45,6.75L3.58,6.74L3.78,6.3L4.33,6.1L4.8,5.63L5.1,5.57L5.2,5.43L5.21,5.55L5.44,5.47L5.57,5.6L6.1,5.31L6.53,5.27L6.7,5.06L7.01,5.14L8.02,4.78L8.48,4.07L8.85,3.85L8.72,3.75L8.72,3.29L8.92,3.05L9.01,3.09L8.98,2.96L9.16,2.98L9.09,2.91L9.21,2.71L9.64,3.5L9.64,3.14L9.86,3.25L9.78,3.12L9.89,3.02L9.59,2.89L9.66,2.82L9.54,2.79L9.7,2.78L9.6,2.71L9.73,2.7L9.63,2.58L9.77,2.57L9.83,2.75L9.86,2.6L10.0,2.64L10.19,2.82L10.17,2.69L10.54,2.72L10.18,2.68L10.4,2.34L10.24,2.46L10.19,2.16L10.36,2.13L10.38,1.97L10.85,2.26L10.62,2.09L10.65,1.97L10.51,2.03L10.61,1.91L10.46,1.91L10.62,1.79L10.68,1.9L10.89,1.9L10.67,1.64L10.81,1.48L10.97,1.52L10.96,1.3L11.05,1.33L11.0,1.57L11.1,1.44L11.19,1.57L11.34,1.24L11.24,1.1L11.37,1.13L11.4,1.3L11.58,1.1L11.62,1.3L11.69,1.13L11.82,1.14L11.73,1.0L12.17,1.11L12.69,1.62L12.54,2.14L12.63,1.92L12.77,2.13L12.67,1.86L12.75,1.75L12.81,1.82L12.78,1.73L12.88,1.81L12.8,1.67L13.2,1.72L13.2,12.75L12.1,13.13L11.2,13.15L10.07,13.63L9.61,14.23L7.32,14.22L7.06,14.33L6.89,14.59L6.58,14.58L6.11,14.94L5.95,14.89L5.88,14.96L5.99,15.0L4.98,14.94L4.03,14.44L4.01,13.96L4.25,14.04L4.45,13.83L4.46,13.13L4.65,12.89L4.49,13.0L4.46,12.73L4.05,11.98L3.93,11.07L3.47,10.41L3.42,10.01L2.8,9.12L2.87,9.18L2.89,9.03L2.96,9.28Z" fill="{{accent}}"/></svg>
