<svg xmlns="http://www.w3.org/2000/svg" viewBox="0 0 180 139">
  <!-- Asplundh "A" mark - traced from the official favicon -->
  <g transform="translate(0,159) scale(0.1,-0.1)" fill="{{accent}}">
    <path d="M651 1568 c-255 -664 -358 -923 -421 -1055 -45 -96 -50 -102 -87 -112 -21 -6 -48 -11 -59 -11 -12 0 -36 -3 -53 -6 l-31 -6 0 -84 0 -84 320 -2 c176 -1 332 -2 348 -2 l27 -1 3 91 3 92 -63 -5 c-90 -7 -132 6 -136 42 -4 32 9 91 39 170 l20 55 243 0 242 0 18 -48 c37 -98 56 -174 46 -192 -11 -21 -52 -30 -136 -30 l-64 0 0 -90 0 -90 445 0 445 0 0 90 0 90 -60 0 c-96 0 -126 17 -161 97 -48 105 -305 753 -421 1061 l-19 52 -240 0 c-239 0 -240 0 -248 -22z m234 -509 c44 -111 81 -205 83 -210 2 -5 -70 -9 -163 -9 -130 0 -166 3 -162 13 2 6 37 101 77 210 40 108 76 197 79 197 3 0 42 -91 86 -201z"/>
  </g>
</svg>
