<svg xmlns="http://www.w3.org/2000/svg" xmlns:xlink="http://www.w3.org/1999/xlink" width="16" height="16" viewBox="-0.96850000000000236 -0.96850000000000236 51.887000000000008 51.887000000000008">
  <!-- Draffin pencil and ruler, from draffin.com.au (Custom-Projects.svg) -->
    <defs>
        <path d="M50.643102,17.812048 L53.0232,15.43195 L45.5532,7.96195 L31.642825,21.872325 L39.112825,29.342325 L40.298875,28.156275 L37.66685,25.52425 L38.37385,24.81725 L41.005875,27.449275 L43.511248,24.943902 L39.89575,21.32885 L40.60275,20.62135 L44.218275,24.236875 L46.723675,21.731475 L44.09165,19.09945 L44.79865,18.39245 L47.430675,21.024475 L49.936075,18.519075 L46.32105,14.90405 L47.02805,14.19655 L50.643102,17.812048 Z M28.156275,40.298875 L29.3421562,39.1129938 L21.8724558,31.6431701 L7.96165,45.553 L15.43165,53.0235 L17.811925,50.643225 L14.1968,47.0281 L14.9038,46.3206 L18.518952,49.936198 L21.024325,47.430825 L18.3922,44.7987 L19.0992,44.0917 L21.731325,46.723825 L24.23675,44.2184 L20.6216,40.60325 L21.3286,39.89575 L24.943777,43.511373 L27.449275,41.005875 L24.81725,38.37385 L25.52425,37.66685 L28.156275,40.298875 Z M39.8198308,30.0493308 L48.617675,38.847175 L51.78525,42.0146 C52.67425,42.9036 53.16425,44.0866 53.16425,45.3436 C53.16425,46.6011 52.67425,47.7831 51.78525,48.6726 L48.67225,51.7856 C47.75425,52.7036 46.54875,53.1621 45.34325,53.1621 C44.13775,53.1626 42.93275,52.7036 42.01475,51.7856 L39.172425,48.943275 L30.0491503,39.8199997 L15.43165,54.4375 L6.54765,45.553 L21.1654622,30.9361649 L8.89385,18.66435 L9.15278158,18.4054184 L8.819,18.4905 L5.5,5.5 L18.4905,8.819 L18.4051871,9.15301289 L18.66435,8.89385 L30.935825,21.165325 L45.5532,6.54795 L54.4377,15.43195 L39.8198308,30.0493308 Z M7.94946782,11.0474667 L9.75402709,18.1105297 L9.79634669,18.15285 L12.16955,18.15285 L12.50805,15.48885 L15.37655,15.37685 L15.48855,12.50785 L18.15305,12.17035 L18.15305,9.79655 L18.1107056,9.75420561 L11.0476187,7.9499512 C10.7819838,9.53098829 9.53060567,10.7819874 7.94946782,11.0474667 Z M7.70071646,10.0738514 C8.92970123,9.90548506 9.9054745,8.93013222 10.0740088,7.7012441 L6.8865,6.887 L7.70071646,10.0738514 Z M39.8794069,48.2362569 L42.72175,51.0786 C44.16725,52.5246 46.51975,52.5236 47.96525,51.0786 L51.07825,47.9651 C51.77875,47.2651 52.16425,46.3341 52.16425,45.3436 C52.16425,44.3536 51.77825,43.4226 51.07825,42.7216 L48.2359431,39.8792931 L39.8794069,48.2362569 Z M46.0100728,40.691218 L18.458696,13.1393504 L16.45455,13.39335 L16.3664885,15.6594926 L43.7039668,42.997462 L46.0100728,40.691218 Z M46.7170517,39.9841969 L47.52885,39.17235 L19.15305,10.79655 L19.15305,12.4197041 L46.7170517,39.9841969 Z M42.996988,43.7044832 L15.6594064,16.3664106 L13.39305,16.45485 L13.134457,18.4948616 L40.6703576,46.0312528 L42.996988,43.7044832 Z M39.9633787,46.7382739 L12.3784462,19.15285 L10.7963298,19.15285 L39.17235,47.52935 L39.9633787,46.7382739 Z" id="path-1"></path>
    </defs>
    <g id="Desktop" stroke="none" stroke-width="3" fill="none" fill-rule="evenodd">
        <g id="About-Us" transform="translate(-395.000000, -2297.000000)">
            <g id="Other-About" transform="translate(360.000000, 2243.000000)">
                <g id="Custom-Projects" transform="translate(0.000000, 1.000000)">
                    <g id="Icon/Custom-White" transform="translate(30.000000, 48.000000)">
                        <mask id="mask-2" fill="#F05A4A">
                            <use xlink:href="#path-1"></use>
                        </mask>
                        <use id="Fill-31" fill="#F05A4A" fill-rule="evenodd" xlink:href="#path-1"></use>
                        <g id="Colour/White" mask="url(#mask-2)" fill="#F05A4A" fill-rule="nonzero">
                            <rect id="Rectangle" x="0" y="0" width="60" height="60"></rect>
                        </g>
                    </g>
                </g>
            </g>
        </g>
    </g>
</svg>
