<svg fill="currentColor" xmlns="http://www.w3.org/2000/svg" viewBox="0 0 16 16"><path d="M12.27,9.1L12.4,9.26L11.88,9.9L11.92,10.48L11.6,10.52L11.19,11.18L10.85,12.71L11.05,12.91L10.97,13.18L8.89,12.4L9.01,12.18L8.77,11.56L8.45,11.43L7.6,11.64L5.57,11.31L5.42,11.59L5.02,11.6L3.66,10.62L3.61,10.17L2.99,9.9L2.69,10.13L2.55,9.67L2.15,9.4L1.57,9.53L1.0,9.34L1.0,3.74L9.84,3.74L10.44,3.27L11.31,3.23L12.12,3.45L12.54,3.94L12.89,3.6L13.22,3.64L13.16,3.21L13.73,2.92L14.44,3.03L14.94,2.82L15.0,3.57L14.71,4.07L14.31,5.66L14.4,6.02L13.78,7.2L13.81,7.56L13.44,7.85L13.18,7.8L13.41,7.92L12.92,8.05L12.84,8.27L12.78,8.14L12.57,8.76L12.18,8.68L12.27,8.91L12.48,8.83L12.44,9.1L12.27,9.1Z"/></svg>
