<svg xmlns="http://www.w3.org/2000/svg" viewBox="0 0 16 16"><path d="M1.55,3.98L1.0,3.78L1.39,3.22L1.44,2.41L1.59,2.79L2.39,2.79L2.92,3.14L3.43,3.02L3.44,2.67L3.66,3.18L4.37,3.2L7.13,4.48L7.53,4.34L7.65,4.63L7.58,4.37L8.18,4.19L8.46,4.71L8.3,4.29L9.06,4.04L9.26,4.26L9.07,4.36L9.64,4.38L10.38,5.4L9.13,3.95L10.01,3.67L10.52,3.86L10.97,3.53L11.55,3.79L12.15,3.18L13.3,3.29L13.43,2.77L13.78,2.82L14.96,3.72L14.59,3.94L14.6,4.46L14.92,4.72L14.54,4.95L15.0,4.79L14.59,5.56L14.84,5.89L14.65,6.76L14.95,8.31L14.75,8.53L14.77,7.95L14.25,7.75L14.57,7.43L14.01,7.78L14.54,7.84L13.83,7.92L13.97,8.1L13.4,8.76L13.73,8.65L13.7,9.38L13.19,9.55L13.46,10.19L12.88,10.85L11.55,10.37L12.22,10.63L11.81,10.7L12.0,11.15L11.49,11.4L11.39,11.12L11.68,11.31L11.72,10.86L11.45,10.98L10.91,10.2L10.36,10.36L10.67,10.24L11.13,10.58L11.21,11.4L10.92,11.29L10.9,12.04L10.55,12.27L10.24,11.82L10.16,12.05L9.87,11.92L10.04,11.43L9.74,11.82L10.3,12.29L9.86,12.44L10.15,12.53L9.99,12.86L9.64,12.76L9.94,13.0L9.56,13.13L9.45,13.59L8.83,13.57L8.28,12.94L8.42,13.24L7.0,13.02L6.31,13.34L6.19,12.73L5.9,12.63L6.17,12.68L6.15,12.44L6.74,12.73L7.06,12.41L6.21,12.46L5.89,12.0L5.68,12.23L5.92,12.33L5.6,12.39L5.01,11.4L4.31,11.18L3.83,9.93L3.45,9.8L3.6,9.61L3.08,8.21L4.16,8.99L4.23,9.44L4.17,9.1L4.77,9.14L4.38,9.1L4.55,8.81L4.26,8.84L3.71,8.04L3.3,8.29L3.23,7.24L2.13,6.32L2.65,5.99L2.17,6.24L1.52,5.32L1.19,3.96L1.55,3.98Z" fill="{{accent}}"/></svg>
