<svg fill="currentColor" xmlns="http://www.w3.org/2000/svg" viewBox="0 0 16 16"><path d="M4.88,4.23L4.73,3.37L4.9,2.92L4.82,2.71L5.05,2.4L4.82,2.37L5.02,1.94L5.07,2.08L5.14,1.98L5.23,1.15L5.59,1.0L5.5,1.17L5.58,1.09L5.73,1.25L5.78,1.83L6.08,1.93L5.95,2.21L6.22,2.42L6.16,2.63L6.3,2.59L6.3,3.28L6.48,3.77L6.67,3.84L7.04,3.6L7.18,3.9L7.68,4.19L7.58,4.58L7.77,5.05L7.72,5.34L8.0,5.7L8.14,5.67L8.28,6.24L8.18,6.69L8.43,6.91L8.39,7.19L8.84,7.5L8.94,7.41L9.03,7.59L9.25,7.51L9.44,7.9L9.56,7.81L9.96,8.15L10.12,8.08L10.27,8.21L10.4,8.43L10.26,8.35L10.19,8.47L10.62,8.84L10.59,9.0L10.82,9.19L10.8,9.49L11.02,9.88L11.24,10.05L11.14,9.81L11.24,9.64L11.63,10.02L11.64,9.79L11.78,9.89L11.86,10.78L11.99,10.74L12.3,11.12L12.55,11.08L12.76,11.47L13.08,11.69L13.14,11.98L13.42,12.05L13.49,12.56L13.52,12.44L13.63,12.53L13.53,13.7L13.63,13.62L13.72,13.89L13.8,13.83L13.91,14.23L13.57,14.38L13.08,14.3L12.69,14.5L12.74,14.79L12.51,14.77L12.27,15.0L11.98,14.67L11.43,14.51L10.83,14.54L10.42,14.86L4.37,14.86L4.37,12.58L2.09,12.58L2.09,5.4L2.88,5.68L3.03,5.99L3.62,6.29L4.06,6.2L4.29,6.04L4.6,5.37L4.88,4.23Z"/></svg>
