<svg xmlns="http://www.w3.org/2000/svg" viewBox="96 140 326 326" fill="#D9009C">
  <g transform="matrix(1.3333333,0,0,-1.3333333,0,504)">
    <g transform="translate(230.584,200.749)">
      <path d="m 0,0 c -0.242,-2.912 -1.941,-19.657 -5.824,-16.745 -3.883,2.912 -8.009,9.95 -9.465,7.766 -0.18,-0.27 -0.326,-0.468 -0.444,-0.611 0.504,-1.811 1.025,-5.757 -4.653,-4.243 -7.28,1.941 -13.104,2.912 -14.075,1.456 0,0 9.222,-4.126 5.581,-6.553 -3.64,-2.426 -5.581,4.368 -9.222,3.398 -0.401,-0.107 -0.711,-0.187 -0.965,-0.25 -0.647,-0.737 -2.282,-3.03 -0.491,-5.817 2.185,-3.397 -7.766,-0.485 -6.309,6.31 0,0 -3.155,-0.729 -6.068,-5.339 -2.912,-4.611 -2.912,-16.745 -5.582,-13.833 -2.669,2.912 -9.707,18.201 -8.736,24.511 0.971,6.31 -2.427,15.047 2.427,12.377 4.853,-2.67 8.737,-5.582 17.473,-5.824 0,0 -13.105,5.338 -14.318,10.678 0,0 23.54,-1.214 47.323,-0.243 0,0 5.582,-3.155 -17.473,-8.979 0,0 12.134,-2.67 21.114,2.426 C -0.728,5.582 0.243,2.912 0,0 m 57.296,-23.86 c 0,0 4.663,-3.166 6.96,-9.485 -0.188,1.021 -5.194,28.487 -4.058,41.94 1.161,13.71 2.613,45.047 -6.967,52.322 0,0 -10.263,-54.584 -37.01,-62.279 v 26.843 c 0,0 -13.94,6.58 -31.129,1.17 0,0 3.121,2.379 3.701,7.555 0.453,4.045 -3.078,9.793 -5.334,15.318 1.397,-4.645 2.764,-11.226 1.706,-13.22 -2.449,-4.617 -6.453,0.253 -16.774,-6.808 -6.749,-4.617 -10.662,5.656 -20.754,6.606 -7.523,0.707 -2.837,11.855 -2.68,12.222 -0.254,-0.339 -6.839,-11.192 -0.72,-22.582 -20.557,5.065 -26.63,-1.391 -26.63,-1.391 l -1.413,-30.799 c 0,0 -28.994,9.448 -44.958,64.427 0,0 -3.484,-22.244 -2.032,-40.99 1.433,-18.478 -6.162,-32.607 -6.38,-33.01 0.242,0.187 5.437,4.261 8.412,10.207 0,0 -1.742,-18.466 4.571,-31.896 6.314,-13.431 3.266,-32.526 -4.136,-38.612 0,0 8.261,2.932 12.621,8.593 -0.176,-0.689 -7.251,-29.216 16.26,-56.578 0,0 -1.378,6.436 0,13.991 0,0 10.45,-18.187 30.768,-26.021 20.319,-7.835 29.027,-24.343 29.027,-24.343 0,0 23.511,8.395 25.834,40.29 0,0 6.675,-15.947 0,-29.097 0,0 36.283,6.434 48.183,34.694 11.671,27.705 22.502,36.589 22.919,36.927 -0.28,-0.13 -6.48,-2.478 -11.796,-6.155 27.212,34.037 11.809,60.161 11.809,60.161"/>
    </g>
  </g>
</svg>
