<svg xmlns="http://www.w3.org/2000/svg" viewBox="60 58 56 52">
  <path d="M70.48,66.48c-1.97,1.79-3.42,4.25-4.31,7.29-.87,2.96-1.29,6.72-1.29,11.19s.44,8.23,1.29,11.19c.42,1.43.97,2.74,1.63,3.91,2.34-3.32,5.11-6.34,8.27-8.96-.26-1.73-.4-3.76-.4-6.14,0-3.02.22-5.56.64-7.51.4-1.85,1.13-3.32,2.11-4.37.89-.93,2.05-1.61,3.46-2.05.79-3.3,2.09-6.4,3.8-9.24-2.84.14-5.39.44-7.57.95-3.1.7-5.68,1.97-7.65,3.76" fill="#FDBD10"/>
  <path d="M82.35,70.89c1.73-.44,3.97-.68,6.66-.68s4.89.22,6.66.68c1.67.42,3,1.17,3.95,2.19.97,1.05,1.69,2.54,2.11,4.39.2.87.34,1.85.46,2.92,1.43-.12,2.86-.22,4.33-.22,2.21,0,4.39.16,6.5.44-.2-2.6-.56-4.89-1.13-6.84-.89-3.04-2.34-5.5-4.31-7.29-1.97-1.79-4.55-3.06-7.65-3.76-2.98-.66-6.66-1.01-10.93-1.01-1.15,0-2.25.04-3.32.08-1.71,2.84-3,5.96-3.8,9.24.16-.04.3-.1.46-.14Z" fill="#009572"/>
  <path d="M88.71,99.74c-2.56,0-4.69-.24-6.36-.66-1.63-.42-2.94-1.17-3.93-2.19-.99-1.05-1.69-2.52-2.11-4.37-.1-.42-.18-.89-.24-1.37-3.14,2.62-5.94,5.62-8.27,8.96.74,1.31,1.63,2.46,2.68,3.4,1.97,1.79,4.55,3.06,7.65,3.76,3,.68,6.66,1.03,10.89,1.03,3.42,0,6.44-.24,9.08-.66-3.58-2.05-6.76-4.71-9.38-7.83" fill="#7C4399"/>
  <path d="M102.2,80.39c.14,1.37.22,2.9.22,4.59,0,3.02-.22,5.54-.68,7.51-.42,1.85-1.15,3.34-2.11,4.39-.97,1.03-2.29,1.77-3.95,2.19-1.77.44-4.01.68-6.66.68h-.3c2.62,3.12,5.78,5.78,9.38,7.83.64-.1,1.29-.22,1.89-.36,3.1-.7,5.68-1.97,7.65-3.76,1.97-1.79,3.42-4.25,4.31-7.29.87-2.96,1.29-6.72,1.29-11.19,0-1.55-.08-2.98-.18-4.35-2.13-.28-4.31-.44-6.5-.44-1.47,0-2.9.08-4.33.22" fill="#006FB9"/>
</svg>
