<?xml version="1.0" encoding="UTF-8"?>
<svg id="Layer_1" data-name="Layer 1" xmlns="http://www.w3.org/2000/svg" viewBox="0 0 170 70">
  <path id="Vector_2" data-name="Vector 2" d="M45.13,57.75c-4.01,0-7.35-.58-9.92-1.73-2.62-1.17-4.73-2.82-6.26-4.89-1.51-2.05-2.58-4.51-3.14-7.29-.54-2.7-.83-5.68-.83-8.84s.28-6.14.83-8.84c.56-2.78,1.61-5.23,3.14-7.29,1.53-2.07,3.64-3.72,6.26-4.89,2.6-1.15,5.94-1.73,9.92-1.73h19.12v8.5h-15.12c-2.64,0-4.85.22-6.6.68-1.63.42-2.96,1.17-3.93,2.17-.99,1.03-1.71,2.46-2.13,4.25-.44,1.89-.68,4.29-.68,7.15s.22,5.27.68,7.15c.42,1.79,1.15,3.22,2.13,4.25.99,1.03,2.29,1.75,3.93,2.17,1.73.44,3.95.68,6.6.68h15.84v8.5h-19.85Z" style="fill: #006fb9;"/>
  <path id="Vector_3" data-name="Vector 3" d="M70.48,16.48c-1.97,1.79-3.42,4.25-4.31,7.29-.87,2.96-1.29,6.72-1.29,11.19s.44,8.23,1.29,11.19c.42,1.43.97,2.74,1.63,3.91,2.34-3.32,5.11-6.34,8.27-8.96-.26-1.73-.4-3.76-.4-6.14,0-3.02.22-5.56.64-7.51.4-1.85,1.13-3.32,2.11-4.37.89-.93,2.05-1.61,3.46-2.05.79-3.3,2.09-6.4,3.8-9.24-2.84.14-5.39.44-7.57.95-3.1.7-5.68,1.97-7.65,3.76" style="fill: #fdbd10;"/>
  <path id="Vector_4" data-name="Vector 4" d="M82.35,20.89c1.73-.44,3.97-.68,6.66-.68s4.89.22,6.66.68c1.67.42,3,1.17,3.95,2.19.97,1.05,1.69,2.54,2.11,4.39.2.87.34,1.85.46,2.92,1.43-.12,2.86-.22,4.33-.22,2.21,0,4.39.16,6.5.44-.2-2.6-.56-4.89-1.13-6.84-.89-3.04-2.34-5.5-4.31-7.29-1.97-1.79-4.55-3.06-7.65-3.76-2.98-.66-6.66-1.01-10.93-1.01-1.15,0-2.25.04-3.32.08-1.71,2.84-3,5.96-3.8,9.24.16-.04.3-.1.46-.14Z" style="fill: #009572;"/>
  <path id="Vector_5" data-name="Vector 5" d="M88.71,49.74c-2.56,0-4.69-.24-6.36-.66-1.63-.42-2.94-1.17-3.93-2.19-.99-1.05-1.69-2.52-2.11-4.37-.1-.42-.18-.89-.24-1.37-3.14,2.62-5.94,5.62-8.27,8.96.74,1.31,1.63,2.46,2.68,3.4,1.97,1.79,4.55,3.06,7.65,3.76,3,.68,6.66,1.03,10.89,1.03,3.42,0,6.44-.24,9.08-.66-3.58-2.05-6.76-4.71-9.38-7.83" style="fill: #7c4399;"/>
  <path id="Vector_6" data-name="Vector 6" d="M102.2,30.39c.14,1.37.22,2.9.22,4.59,0,3.02-.22,5.54-.68,7.51-.42,1.85-1.15,3.34-2.11,4.39-.97,1.03-2.29,1.77-3.95,2.19-1.77.44-4.01.68-6.66.68h-.3c2.62,3.12,5.78,5.78,9.38,7.83.64-.1,1.29-.22,1.89-.36,3.1-.7,5.68-1.97,7.65-3.76,1.97-1.79,3.42-4.25,4.31-7.29.87-2.96,1.29-6.72,1.29-11.19,0-1.55-.08-2.98-.18-4.35-2.13-.28-4.31-.44-6.5-.44-1.47,0-2.9.08-4.33.22" style="fill: #006fb9;"/>
  <path id="Vector_7" data-name="Vector 7" d="M115.67,20.08c-.04-5.11,2.52-7.69,7.69-7.73l16.02-.12c2.58,0,4.97.2,7.17.66,2.19.46,4.07,1.29,5.62,2.48,1.57,1.19,2.8,2.76,3.7,4.75.91,1.99,1.37,4.45,1.39,7.41l.24,29.77-10.09.08-.22-27.14c-.02-3.4-.79-6-2.25-7.75-1.49-1.75-3.95-2.62-7.39-2.6l-9.22.08c-1.73,0-2.58.87-2.56,2.58l.28,34.97-10.09.08-.3-37.52Z" style="fill: #006fb9;"/>
  <path id="Vector_8" data-name="Vector 8" d="M22.61,52.35c0,3.48-1.77,4.81-5.21,4.79h-4.89l.04-40.46c0-3.48,1.77-4.81,5.21-4.79h4.87l-.04,40.46h.02Z" style="fill: #006fb9;"/>
</svg>