<svg xmlns="http://www.w3.org/2000/svg" viewBox="0 -72.95 421.5 421.5"><g transform="translate(-77.25 -150.2)" fill="currentColor"><path d="M459.92,241.29l-.63-.34-.21-.69a79.55,79.55,0,0,0-75.76-56.45,77.83,77.83,0,0,0-34.39,7.91l-1.25.6-.87-1.08a109.59,109.59,0,0,0-179.07,11.5l-.46.74-.86.08a98.93,98.93,0,1,0,27.91,195.7l.74-.13.6.44A136.26,136.26,0,0,0,359,397.64l.72-.55.87.28a74.52,74.52,0,0,0,74.6-17.43l.39-.38.55-.08a74,74,0,0,0,23.79-138.19ZM428.8,355.63l-4.86.4-3.27,3.63a50.39,50.39,0,0,1-37.35,16.72,49.71,49.71,0,0,1-20.73-4.53l-7.2-3.28-6,5.19a111.69,111.69,0,0,1-73.37,27.48,110.56,110.56,0,0,1-70.33-24.9l-4.81-3.9-6,1.55a74.41,74.41,0,0,1-93.12-72c0-40.32,32.8-73.67,73.12-74.34l7.35-.12,3.36-6.54a85,85,0,0,1,148.11-5.72l6.95,11.27,10.71-7.77a54,54,0,0,1,31.92-10.4A54.65,54.65,0,0,1,436.73,252l1.29,6.35,6,2.52a49.41,49.41,0,0,1-15.19,94.78Z"/></g></svg>
