<svg fill="currentColor" xmlns="http://www.w3.org/2000/svg" viewBox="0 0 16 16"><path d="M7.47,10.85L7.09,11.02L6.73,10.72L7.15,10.79L7.45,10.47L7.11,10.0L6.28,10.41L6.79,10.43L6.76,10.66L4.96,11.58L3.19,10.79L1.64,10.84L1.0,10.33L1.0,4.0L1.85,4.37L2.87,4.27L3.47,5.24L3.84,4.88L4.7,5.26L4.78,5.88L6.84,7.32L7.24,7.25L7.26,6.91L8.1,6.83L8.53,7.12L10.29,7.32L11.79,7.13L12.27,8.07L12.1,8.38L15.0,9.48L14.24,9.9L11.6,10.17L10.19,11.23L9.15,11.32L9.28,11.65L9.57,11.47L9.49,12.0L7.85,11.08L8.03,10.61L7.47,10.85Z"/></svg>
