<svg xmlns="http://www.w3.org/2000/svg" viewBox="0 0 16 16"><path d="M5.19,2.52L5.4,2.5L5.22,2.43L5.29,2.19L5.62,2.42L5.47,2.21L5.7,2.16L5.68,1.97L5.86,2.1L5.93,1.87L6.05,2.09L6.65,2.12L7.18,1.91L7.05,1.35L6.7,1.4L6.36,1.19L6.58,1.01L6.75,1.29L6.72,1.01L6.85,1.15L6.9,1.0L7.22,1.38L7.45,1.2L7.71,1.58L8.39,1.59L8.31,1.7L8.59,1.74L8.63,1.94L9.17,1.78L9.61,2.11L9.75,1.91L10.27,1.79L10.03,1.97L10.08,2.13L10.39,1.89L10.34,2.27L10.57,2.27L10.69,2.05L10.51,1.99L10.88,1.72L10.77,1.82L10.96,2.09L11.09,1.98L11.27,2.16L11.03,2.26L10.94,2.62L10.79,2.56L10.98,2.78L10.78,2.75L10.79,3.01L10.66,3.08L10.66,2.8L10.52,3.04L10.49,2.89L10.27,3.03L10.24,3.44L10.43,3.39L10.26,3.89L9.77,4.4L10.65,5.24L11.03,5.31L11.02,5.53L11.27,5.45L12.23,6.11L12.23,15.0L3.77,15.0L3.77,4.54L3.94,4.64L3.91,4.84L3.98,4.5L4.41,4.79L4.24,4.46L4.62,4.44L4.4,4.43L4.32,4.29L4.49,4.22L4.26,4.23L4.11,4.03L4.22,3.76L4.47,3.69L4.53,3.24L4.97,3.09L4.84,2.71L5.02,2.67L5.04,2.46L5.19,2.52Z" fill="{{accent}}"/></svg>
