<svg xmlns="http://www.w3.org/2000/svg" viewBox="0 0 16 16"><path d="M3 1.5A1.5 1.5 0 0 1 4.5 0h4.379a1.5 1.5 0 0 1 1.06.44l2.122 2.12A1.5 1.5 0 0 1 12.5 3.622V14.5A1.5 1.5 0 0 1 11 16H4.5A1.5 1.5 0 0 1 3 14.5v-13z" fill="#C0AFA0" opacity=".3"/><rect x="5" y="5" width="6" height="1" rx=".5" fill="#C0AFA0"/><rect x="5" y="7.5" width="4" height="1" rx=".5" fill="#C0AFA0"/><rect x="5" y="10" width="5" height="1" rx=".5" fill="#C0AFA0"/><rect x="5" y="12.5" width="3" height="1" rx=".5" fill="#C0AFA0"/></svg>