<svg fill="currentColor" xmlns="http://www.w3.org/2000/svg" viewBox="0 0 16 16"><path d="M12.06,11.27L11.57,10.45L11.2,11.59L10.11,11.74L10.34,11.33L10.84,11.35L10.84,10.45L11.46,9.78L11.26,9.44L11.55,9.26L11.19,8.45L11.23,9.13L10.85,9.28L10.57,9.9L9.85,10.17L9.27,10.92L9.08,10.9L8.91,11.23L9.17,11.15L9.11,11.46L8.13,10.97L8.24,10.79L8.6,11.0L8.29,10.27L7.8,9.86L7.65,9.33L7.03,9.2L6.91,8.81L7.1,8.89L7.15,8.64L6.66,8.6L6.78,8.42L6.45,8.09L5.82,8.21L5.38,7.91L4.75,8.0L3.53,7.35L1.04,7.61L1.04,1.0L14.96,1.0L14.93,15.0L14.26,14.84L13.62,14.15L13.42,13.72L13.63,13.36L13.08,12.49L12.37,12.06L11.59,12.18L11.99,11.86L12.06,11.27Z"/></svg>
