<svg xmlns="http://www.w3.org/2000/svg" viewBox="0 0 300 200">
  <!-- Lucid Labs cloud with arrows -->
  <path d="M131.1,127.2h-20.9l6.5-6.6c6.8-6.9,7.5-8.2,5.5-11.1-.6-1-1.6-1.4-3-1.4s-3.4,1.3-13.1,11.1c-8.1,8.1-11,11.5-11,12.6s2.9,4.5,11,12.6c11.8,11.8,13,12.6,15.9,9.8,2.5-2.5,1.7-4.2-5.2-11.2l-6.5-6.6h20.5c19.8,0,20.5,0,22.2-1.3,2-1.6,2.2-4.5.4-6.3-1.2-1.2-2.1-1.3-22.2-1.3h0Z" fill="{{accent}}"/>
  <path d="M176.1,96c-7.2-7.2-11.6-11-12.4-11-2.2,0-4.2,2.1-4.2,4.4s1,3,6.6,8.8l6.6,6.6h-21.1c-11.6,0-21.4.3-21.8.5-2.4,1.6-2.6,6-.3,7.2.9.5,8.4.7,22.2.6h20.9l-6.8,6.9c-4.2,4.3-6.8,7.5-6.8,8.2,0,2.2,2.1,4.2,4.5,4.2s3.3-1.2,12.9-10.8c9.1-9.2,10.8-11.2,10.8-12.8s-1.7-3.6-11.1-12.9h0Z" fill="{{accent}}"/>
  <path d="M255.5,85.1l-2.7-.5-.8-3.9c-2.3-11.4-9.9-23-19-29.2-12.3-8.4-25.3-10.7-40.4-7.2-1.9.4-2.1.2-5.1-4.3-4.2-6.1-14.1-16.1-19.8-19.8-10-6.6-21.5-11.2-32.3-13-17-2.8-34.8.2-49.9,8.1-8.1,4.3-13.4,8.2-19.9,15-13.3,13.8-20.9,30.5-22.2,48.8l-.5,5.8-6.1,2c-16,5.3-27.3,15.8-33.3,30.8-8.6,21.3-1.9,46.5,15.9,60.7,4.4,3.4,13.4,8.1,19.6,10l4.5,1.4,100.1.3c66.6.1,102.6,0,107.5-.5,4.5-.4,9.5-1.3,12.5-2.2,16.5-5.3,29.3-18.5,34.5-35.8,1.5-5,1.7-6.8,1.7-14.4s-.3-9.4-1.7-14.4c-6-20-22.2-34.4-42.6-37.9h0ZM287,148.9c-4.2,13.3-13.8,23.2-27,27.8l-5.4,1.9-102.3.2c-114.7.2-107.7.5-118-4.5-4.4-2.1-6.4-3.6-10.9-8.1-6.1-6.2-8.8-10.8-10.9-19-5.9-23.3,10.3-47.3,34.3-50.7,3.3-.5,4.7-1,6-2.3,1.6-1.5,1.7-2,2.1-11.1.6-13,3.4-22.9,9.6-33.2,9.7-16.2,28.6-28.6,48.5-31.7,4-.6,16.3-.4,21.2.5,18.3,3.2,35,14.3,45.2,30.1,6.5,10,6.3,9.9,13.4,7.5,9.6-3.2,19.8-2.7,28.8,1.5,4.5,2.1,13.1,10.5,15.7,15.4,2.1,4,4.3,12.1,4.3,16s.4,3.2,1.8,4.6c1.5,1.5,2.4,1.9,6.8,2.2,5.8.5,13.2,2.8,17.9,5.5,8.2,4.7,15.5,13.9,18.7,23.3,2.4,7.2,2.5,17,.3,24h0Z" fill="{{keyword}}"/>
</svg>
