<svg fill="currentColor" xmlns="http://www.w3.org/2000/svg" viewBox="0 0 16 16">
  <!-- Aurora Dairies "U with splash" mark -->
  <g transform="translate(-10.03 -6.10) scale(0.356)">
    <path d="M54.1825 37.726L53.4984 41.5512C53.1241 43.6464 51.3 45.172 49.1695 45.172C46.9779 45.172 45.2013 43.3966 45.2013 41.2066V33.4928H37.499V46.6614C37.499 53.5932 43.1216 59.2118 50.0583 59.2118C57.0051 59.2118 62.6334 53.5751 62.6176 46.6331L62.5927 32.5887L62.1438 32.4848C60.6793 32.1435 59.1413 32.3152 57.7877 32.9696C55.8924 33.886 54.5523 35.6546 54.1814 37.726H54.1825Z"/>
    <path d="M58.2447 20.1332C53.0926 20.662 49.346 25.2648 49.8753 30.4134C50.0155 31.7762 50.443 33.0385 51.0887 34.1516C51.1905 34.3256 51.4472 34.32 51.5297 34.1358C52.8585 31.1965 55.7014 29.0177 59.1392 28.6584C59.1336 28.6584 59.1449 28.6584 59.1392 28.6584C61.9291 28.36 63.8119 25.449 62.5951 22.6137C61.8703 20.922 60.0756 19.9456 58.2436 20.1343L58.2447 20.1332Z"/>
  </g>
</svg>
